<?xml version="1.0" encoding="UTF-8" standalone="no"?>
<!DOCTYPE svg PUBLIC "-//W3C//DTD SVG 1.1//EN"
 "http://www.w3.org/Graphics/SVG/1.1/DTD/svg11.dtd">
<!-- Generated by graphviz version 2.40.1 (20161225.0304)
 -->
<!-- Title: G Pages: 1 -->
<svg width="2976pt" height="674pt"
 viewBox="0.00 0.00 2976.00 674.38" xmlns="http://www.w3.org/2000/svg" xmlns:xlink="http://www.w3.org/1999/xlink">
<g id="graph0" class="graph" transform="scale(1 1) rotate(0) translate(4 670.3818)">
<title>G</title>
<polygon fill="#ffffff" stroke="transparent" points="-4,4 -4,-670.3818 2972,-670.3818 2972,4 -4,4"/>
<g id="clust1" class="cluster">
<title>cluster_G</title>
<path fill="#808080" fill-opacity="0.094118" stroke="#000000" d="M20,-8C20,-8 2948,-8 2948,-8 2954,-8 2960,-14 2960,-20 2960,-20 2960,-646.3818 2960,-646.3818 2960,-652.3818 2954,-658.3818 2948,-658.3818 2948,-658.3818 20,-658.3818 20,-658.3818 14,-658.3818 8,-652.3818 8,-646.3818 8,-646.3818 8,-20 8,-20 8,-14 14,-8 20,-8"/>
</g>
<g id="clust2" class="cluster">
<title>cluster_yapgrep_common_gui</title>
<path fill="#808080" fill-opacity="0.094118" stroke="#000000" d="M849,-16C849,-16 1135,-16 1135,-16 1141,-16 1147,-22 1147,-28 1147,-28 1147,-92.9117 1147,-92.9117 1147,-98.9117 1141,-104.9117 1135,-104.9117 1135,-104.9117 849,-104.9117 849,-104.9117 843,-104.9117 837,-98.9117 837,-92.9117 837,-92.9117 837,-28 837,-28 837,-22 843,-16 849,-16"/>
<text text-anchor="middle" x="992" y="-89.7117" font-family="Times,serif" font-size="14.00" fill="#000000">yapgrep_common_gui</text>
</g>
<g id="clust3" class="cluster">
<title>cluster_yapgrep_common_gui__Ui_Common</title>
<path fill="#808080" fill-opacity="0.094118" stroke="#000000" d="M2654,-375.6468C2654,-375.6468 2940,-375.6468 2940,-375.6468 2946,-375.6468 2952,-381.6468 2952,-387.6468 2952,-387.6468 2952,-549.4701 2952,-549.4701 2952,-555.4701 2946,-561.4701 2940,-561.4701 2940,-561.4701 2654,-561.4701 2654,-561.4701 2648,-561.4701 2642,-555.4701 2642,-549.4701 2642,-549.4701 2642,-387.6468 2642,-387.6468 2642,-381.6468 2648,-375.6468 2654,-375.6468"/>
<text text-anchor="middle" x="2797" y="-546.2701" font-family="Times,serif" font-size="14.00" fill="#000000">yapgrep_common_gui.Ui_Common</text>
</g>
<g id="clust4" class="cluster">
<title>cluster_yapgrep_gui</title>
<path fill="#808080" fill-opacity="0.094118" stroke="#000000" d="M54,-16C54,-16 260,-16 260,-16 266,-16 272,-22 272,-28 272,-28 272,-92.9117 272,-92.9117 272,-98.9117 266,-104.9117 260,-104.9117 260,-104.9117 54,-104.9117 54,-104.9117 48,-104.9117 42,-98.9117 42,-92.9117 42,-92.9117 42,-28 42,-28 42,-22 48,-16 54,-16"/>
<text text-anchor="middle" x="157" y="-89.7117" font-family="Times,serif" font-size="14.00" fill="#000000">yapgrep_gui</text>
</g>
<g id="clust5" class="cluster">
<title>cluster_yapgrep_gui__Ui_MainWindow</title>
<path fill="#808080" fill-opacity="0.094118" stroke="#000000" d="M2380,-288.7351C2380,-288.7351 2598,-288.7351 2598,-288.7351 2604,-288.7351 2610,-294.7351 2610,-300.7351 2610,-300.7351 2610,-452.5584 2610,-452.5584 2610,-458.5584 2604,-464.5584 2598,-464.5584 2598,-464.5584 2380,-464.5584 2380,-464.5584 2374,-464.5584 2368,-458.5584 2368,-452.5584 2368,-452.5584 2368,-300.7351 2368,-300.7351 2368,-294.7351 2374,-288.7351 2380,-288.7351"/>
<text text-anchor="middle" x="2489" y="-449.3584" font-family="Times,serif" font-size="14.00" fill="#000000">yapgrep_gui.Ui_MainWindow</text>
</g>
<g id="clust6" class="cluster">
<title>cluster_yapgrep_main_gui</title>
<path fill="#808080" fill-opacity="0.094118" stroke="#000000" d="M28,-112.9117C28,-112.9117 1135,-112.9117 1135,-112.9117 1141,-112.9117 1147,-118.9117 1147,-124.9117 1147,-124.9117 1147,-189.8234 1147,-189.8234 1147,-195.8234 1141,-201.8234 1135,-201.8234 1135,-201.8234 28,-201.8234 28,-201.8234 22,-201.8234 16,-195.8234 16,-189.8234 16,-189.8234 16,-124.9117 16,-124.9117 16,-118.9117 22,-112.9117 28,-112.9117"/>
<text text-anchor="middle" x="581.5" y="-186.6234" font-family="Times,serif" font-size="14.00" fill="#000000">yapgrep_main_gui</text>
</g>
<g id="clust7" class="cluster">
<title>cluster_yapgrep_main_gui__CommonDialog</title>
<path fill="#808080" fill-opacity="0.094118" stroke="#000000" d="M2346,-472.5584C2346,-472.5584 2622,-472.5584 2622,-472.5584 2628,-472.5584 2634,-478.5584 2634,-484.5584 2634,-484.5584 2634,-638.3818 2634,-638.3818 2634,-644.3818 2628,-650.3818 2622,-650.3818 2622,-650.3818 2346,-650.3818 2346,-650.3818 2340,-650.3818 2334,-644.3818 2334,-638.3818 2334,-638.3818 2334,-484.5584 2334,-484.5584 2334,-478.5584 2340,-472.5584 2346,-472.5584"/>
<text text-anchor="middle" x="2484" y="-635.1818" font-family="Times,serif" font-size="14.00" fill="#000000">yapgrep_main_gui.CommonDialog</text>
</g>
<g id="clust8" class="cluster">
<title>cluster_yapgrep_main_gui__YapgrepGuiProgram</title>
<path fill="#808080" fill-opacity="0.094118" stroke="#000000" d="M1167,-16C1167,-16 2314,-16 2314,-16 2320,-16 2326,-22 2326,-28 2326,-28 2326,-549.4701 2326,-549.4701 2326,-555.4701 2320,-561.4701 2314,-561.4701 2314,-561.4701 1167,-561.4701 1167,-561.4701 1161,-561.4701 1155,-555.4701 1155,-549.4701 1155,-549.4701 1155,-28 1155,-28 1155,-22 1161,-16 1167,-16"/>
<text text-anchor="middle" x="1740.5" y="-546.2701" font-family="Times,serif" font-size="14.00" fill="#000000">yapgrep_main_gui.YapgrepGuiProgram</text>
</g>
<!-- yapgrep_common_gui -->
<g id="node1" class="node">
<title>yapgrep_common_gui</title>
<ellipse fill="#ffffff" fill-opacity="0.698039" stroke="#000000" cx="680" cy="-506.0143" rx="89.8619" ry="18"/>
<text text-anchor="middle" x="680" y="-501.8143" font-family="Times,serif" font-size="14.00" fill="#000000">yapgrep_common_gui</text>
</g>
<!-- yapgrep_gui -->
<g id="node2" class="node">
<title>yapgrep_gui</title>
<ellipse fill="#ffffff" fill-opacity="0.698039" stroke="#000000" cx="478" cy="-506.0143" rx="54.123" ry="18"/>
<text text-anchor="middle" x="478" y="-501.8143" font-family="Times,serif" font-size="14.00" fill="#000000">yapgrep_gui</text>
</g>
<!-- yapgrep_main_gui -->
<g id="node3" class="node">
<title>yapgrep_main_gui</title>
<ellipse fill="#ffffff" fill-opacity="0.698039" stroke="#000000" cx="625" cy="-594.926" rx="76.3312" ry="18"/>
<text text-anchor="middle" x="625" y="-590.726" font-family="Times,serif" font-size="14.00" fill="#000000">yapgrep_main_gui</text>
</g>
<!-- yapgrep_main_gui&#45;&gt;yapgrep_common_gui -->
<g id="edge4" class="edge">
<title>yapgrep_main_gui&#45;&gt;yapgrep_common_gui</title>
<path fill="none" stroke="#000000" d="M636.1301,-576.9334C643.9577,-564.2794 654.5674,-547.1279 663.3923,-532.862"/>
<polygon fill="#000000" stroke="#000000" points="666.6022,-534.3258 668.8865,-523.9801 660.6492,-530.6433 666.6022,-534.3258"/>
</g>
<!-- yapgrep_main_gui&#45;&gt;yapgrep_gui -->
<g id="edge3" class="edge">
<title>yapgrep_main_gui&#45;&gt;yapgrep_gui</title>
<path fill="none" stroke="#000000" d="M582.9096,-579.6957C570.6539,-574.5785 557.4813,-568.3893 546,-561.4701 531.0158,-552.4399 515.7907,-540.3513 503.5564,-529.7656"/>
<polygon fill="#000000" stroke="#000000" points="505.7929,-527.0713 495.9812,-523.0737 501.1584,-532.3174 505.7929,-527.0713"/>
</g>
<!-- yapgrep_main_gui__YapgrepGuiProgram -->
<g id="node12" class="node">
<title>yapgrep_main_gui__YapgrepGuiProgram</title>
<ellipse fill="#ccfefe" fill-opacity="0.698039" stroke="#000000" cx="157" cy="-146.3675" rx="132.6167" ry="25.4118"/>
<text text-anchor="middle" x="157" y="-149.1675" font-family="Times,serif" font-size="14.00" fill="#000000">YapgrepGuiProgram</text>
<text text-anchor="middle" x="157" y="-135.1675" font-family="Times,serif" font-size="14.00" fill="#000000">(gui/yapgrep_main_gui.py:44)</text>
</g>
<!-- yapgrep_main_gui&#45;&gt;yapgrep_main_gui__YapgrepGuiProgram -->
<g id="edge7" class="edge">
<title>yapgrep_main_gui&#45;&gt;yapgrep_main_gui__YapgrepGuiProgram</title>
<path fill="none" stroke="#000000" d="M580.2199,-580.3208C571.8889,-575.5937 564.1862,-569.4372 559,-561.4701 540.5025,-533.0542 551,-443.0087 551,-409.1026 551,-409.1026 551,-409.1026 551,-322.1909 551,-304.5637 337.9184,-217.7745 225.1565,-173.0802"/>
<polygon fill="#000000" stroke="#000000" points="226.1466,-169.7079 215.5603,-169.2823 223.5706,-176.2167 226.1466,-169.7079"/>
</g>
<!-- yapgrep_main_gui__unixTimestamp -->
<g id="node13" class="node">
<title>yapgrep_main_gui__unixTimestamp</title>
<ellipse fill="#ccfefe" fill-opacity="0.698039" stroke="#000000" cx="440" cy="-146.3675" rx="132.6167" ry="25.4118"/>
<text text-anchor="middle" x="440" y="-149.1675" font-family="Times,serif" font-size="14.00" fill="#000000">unixTimestamp</text>
<text text-anchor="middle" x="440" y="-135.1675" font-family="Times,serif" font-size="14.00" fill="#000000">(gui/yapgrep_main_gui.py:20)</text>
</g>
<!-- yapgrep_main_gui&#45;&gt;yapgrep_main_gui__unixTimestamp -->
<g id="edge6" class="edge">
<title>yapgrep_main_gui&#45;&gt;yapgrep_main_gui__unixTimestamp</title>
<path fill="none" stroke="#000000" d="M595.4517,-578.0935C589.7329,-573.4529 584.4524,-567.8944 581,-561.4701 548.8747,-501.6908 571,-476.9672 571,-409.1026 571,-409.1026 571,-409.1026 571,-322.1909 571,-271.8068 584.5101,-251.3653 556,-209.8234 545.5335,-194.5726 530.1633,-182.6357 514.0135,-173.4375"/>
<polygon fill="#000000" stroke="#000000" points="515.4554,-170.2394 504.9873,-168.6055 512.1516,-176.4108 515.4554,-170.2394"/>
</g>
<!-- yapgrep_main_gui__YapgrepGuiProgram____init__ -->
<g id="node16" class="node">
<title>yapgrep_main_gui__YapgrepGuiProgram____init__</title>
<ellipse fill="#99feff" fill-opacity="0.698039" stroke="#000000" cx="1874" cy="-506.0143" rx="132.6167" ry="25.4118"/>
<text text-anchor="middle" x="1874" y="-508.8143" font-family="Times,serif" font-size="14.00" fill="#000000">__init__</text>
<text text-anchor="middle" x="1874" y="-494.8143" font-family="Times,serif" font-size="14.00" fill="#000000">(gui/yapgrep_main_gui.py:45)</text>
</g>
<!-- yapgrep_main_gui&#45;&gt;yapgrep_main_gui__YapgrepGuiProgram____init__ -->
<g id="edge8" class="edge">
<title>yapgrep_main_gui&#45;&gt;yapgrep_main_gui__YapgrepGuiProgram____init__</title>
<path fill="none" stroke="#000000" d="M701.7129,-594.186C936.6755,-591.7009 1636.5907,-582.5938 1737,-561.4701 1764.3765,-555.7108 1793.2836,-544.7985 1817.4518,-534.167"/>
<polygon fill="#000000" stroke="#000000" points="1819.1247,-537.2525 1826.8112,-529.9608 1816.2552,-530.8676 1819.1247,-537.2525"/>
</g>
<!-- yapgrep_main_gui__YapgrepGuiProgram__search -->
<g id="node25" class="node">
<title>yapgrep_main_gui__YapgrepGuiProgram__search</title>
<ellipse fill="#99feff" fill-opacity="0.698039" stroke="#000000" cx="1301" cy="-409.1026" rx="137.5162" ry="25.4118"/>
<text text-anchor="middle" x="1301" y="-411.9026" font-family="Times,serif" font-size="14.00" fill="#000000">search</text>
<text text-anchor="middle" x="1301" y="-397.9026" font-family="Times,serif" font-size="14.00" fill="#000000">(gui/yapgrep_main_gui.py:147)</text>
</g>
<!-- yapgrep_main_gui&#45;&gt;yapgrep_main_gui__YapgrepGuiProgram__search -->
<g id="edge5" class="edge">
<title>yapgrep_main_gui&#45;&gt;yapgrep_main_gui__YapgrepGuiProgram__search</title>
<path fill="none" stroke="#000000" d="M683.8393,-583.4409C783.0344,-563.441 989.3326,-519.0973 1159,-464.5584 1184.5802,-456.3358 1212.2041,-445.9133 1236.2277,-436.3289"/>
<polygon fill="#000000" stroke="#000000" points="1237.619,-439.5419 1245.5911,-432.5636 1235.0073,-433.0473 1237.619,-439.5419"/>
</g>
<!-- yapgrep_common_gui__Ui_Common -->
<g id="node4" class="node">
<title>yapgrep_common_gui__Ui_Common</title>
<ellipse fill="#fecccc" fill-opacity="0.698039" stroke="#000000" cx="992" cy="-49.4558" rx="147.0901" ry="25.4118"/>
<text text-anchor="middle" x="992" y="-52.2558" font-family="Times,serif" font-size="14.00" fill="#000000">Ui_Common</text>
<text text-anchor="middle" x="992" y="-38.2558" font-family="Times,serif" font-size="14.00" fill="#000000">(gui/yapgrep_common_gui.py:11)</text>
</g>
<!-- yapgrep_common_gui__Ui_Common__retranslateUi -->
<g id="node5" class="node">
<title>yapgrep_common_gui__Ui_Common__retranslateUi</title>
<ellipse fill="#ff9999" fill-opacity="0.698039" stroke="#000000" cx="2797" cy="-409.1026" rx="147.3152" ry="25.4118"/>
<text text-anchor="middle" x="2797" y="-411.9026" font-family="Times,serif" font-size="14.00" fill="#000000">retranslateUi</text>
<text text-anchor="middle" x="2797" y="-397.9026" font-family="Times,serif" font-size="14.00" fill="#000000">(gui/yapgrep_common_gui.py:73)</text>
</g>
<!-- yapgrep_common_gui__Ui_Common__setupUi -->
<g id="node6" class="node">
<title>yapgrep_common_gui__Ui_Common__setupUi</title>
<ellipse fill="#ff9999" fill-opacity="0.698039" stroke="#000000" cx="2797" cy="-506.0143" rx="147.3152" ry="25.4118"/>
<text text-anchor="middle" x="2797" y="-508.8143" font-family="Times,serif" font-size="14.00" fill="#000000">setupUi</text>
<text text-anchor="middle" x="2797" y="-494.8143" font-family="Times,serif" font-size="14.00" fill="#000000">(gui/yapgrep_common_gui.py:12)</text>
</g>
<!-- yapgrep_common_gui__Ui_Common__setupUi&#45;&gt;yapgrep_common_gui__Ui_Common__retranslateUi -->
<g id="edge1" class="edge">
<title>yapgrep_common_gui__Ui_Common__setupUi&#45;&gt;yapgrep_common_gui__Ui_Common__retranslateUi</title>
<path fill="none" stroke="#000000" d="M2797,-480.5519C2797,-469.6214 2797,-456.6589 2797,-444.7953"/>
<polygon fill="#000000" stroke="#000000" points="2800.5001,-444.7314 2797,-434.7314 2793.5001,-444.7315 2800.5001,-444.7314"/>
</g>
<!-- yapgrep_gui__Ui_MainWindow -->
<g id="node7" class="node">
<title>yapgrep_gui__Ui_MainWindow</title>
<ellipse fill="#e5fecc" fill-opacity="0.698039" stroke="#000000" cx="157" cy="-49.4558" rx="107.4039" ry="25.4118"/>
<text text-anchor="middle" x="157" y="-52.2558" font-family="Times,serif" font-size="14.00" fill="#000000">Ui_MainWindow</text>
<text text-anchor="middle" x="157" y="-38.2558" font-family="Times,serif" font-size="14.00" fill="#000000">(gui/yapgrep_gui.py:11)</text>
</g>
<!-- yapgrep_gui__Ui_MainWindow__retranslateUi -->
<g id="node8" class="node">
<title>yapgrep_gui__Ui_MainWindow__retranslateUi</title>
<ellipse fill="#ccff99" fill-opacity="0.698039" stroke="#000000" cx="2489" cy="-322.1909" rx="112.5289" ry="25.4118"/>
<text text-anchor="middle" x="2489" y="-324.9909" font-family="Times,serif" font-size="14.00" fill="#000000">retranslateUi</text>
<text text-anchor="middle" x="2489" y="-310.9909" font-family="Times,serif" font-size="14.00" fill="#000000">(gui/yapgrep_gui.py:102)</text>
</g>
<!-- yapgrep_gui__Ui_MainWindow__setupUi -->
<g id="node9" class="node">
<title>yapgrep_gui__Ui_MainWindow__setupUi</title>
<ellipse fill="#ccff99" fill-opacity="0.698039" stroke="#000000" cx="2489" cy="-409.1026" rx="107.6292" ry="25.4118"/>
<text text-anchor="middle" x="2489" y="-411.9026" font-family="Times,serif" font-size="14.00" fill="#000000">setupUi</text>
<text text-anchor="middle" x="2489" y="-397.9026" font-family="Times,serif" font-size="14.00" fill="#000000">(gui/yapgrep_gui.py:12)</text>
</g>
<!-- yapgrep_gui__Ui_MainWindow__setupUi&#45;&gt;yapgrep_gui__Ui_MainWindow__retranslateUi -->
<g id="edge2" class="edge">
<title>yapgrep_gui__Ui_MainWindow__setupUi&#45;&gt;yapgrep_gui__Ui_MainWindow__retranslateUi</title>
<path fill="none" stroke="#000000" d="M2489,-383.4963C2489,-375.5224 2489,-366.5779 2489,-358.0381"/>
<polygon fill="#000000" stroke="#000000" points="2492.5001,-357.9145 2489,-347.9145 2485.5001,-357.9146 2492.5001,-357.9145"/>
</g>
<!-- yapgrep_main_gui__CommonDialog -->
<g id="node10" class="node">
<title>yapgrep_main_gui__CommonDialog</title>
<ellipse fill="#ccfefe" fill-opacity="0.698039" stroke="#000000" cx="1006" cy="-146.3675" rx="132.6167" ry="25.4118"/>
<text text-anchor="middle" x="1006" y="-149.1675" font-family="Times,serif" font-size="14.00" fill="#000000">CommonDialog</text>
<text text-anchor="middle" x="1006" y="-135.1675" font-family="Times,serif" font-size="14.00" fill="#000000">(gui/yapgrep_main_gui.py:31)</text>
</g>
<!-- yapgrep_main_gui__CommonDialog&#45;&gt;yapgrep_common_gui__Ui_Common -->
<g id="edge9" class="edge">
<title>yapgrep_main_gui__CommonDialog&#45;&gt;yapgrep_common_gui__Ui_Common</title>
<path fill="none" stroke="#000000" d="M1002.3217,-120.9051C1000.7426,-109.9747 998.87,-97.0121 997.1562,-85.1486"/>
<polygon fill="#000000" stroke="#000000" points="1000.5963,-84.4815 995.7024,-75.0847 993.6682,-85.4824 1000.5963,-84.4815"/>
</g>
<!-- yapgrep_main_gui__YapCancel -->
<g id="node11" class="node">
<title>yapgrep_main_gui__YapCancel</title>
<ellipse fill="#ccfefe" fill-opacity="0.698039" stroke="#000000" cx="723" cy="-146.3675" rx="132.6167" ry="25.4118"/>
<text text-anchor="middle" x="723" y="-149.1675" font-family="Times,serif" font-size="14.00" fill="#000000">YapCancel</text>
<text text-anchor="middle" x="723" y="-135.1675" font-family="Times,serif" font-size="14.00" fill="#000000">(gui/yapgrep_main_gui.py:27)</text>
</g>
<!-- yapgrep_main_gui__YapgrepGuiProgram&#45;&gt;yapgrep_gui__Ui_MainWindow -->
<g id="edge14" class="edge">
<title>yapgrep_main_gui__YapgrepGuiProgram&#45;&gt;yapgrep_gui__Ui_MainWindow</title>
<path fill="none" stroke="#000000" d="M157,-120.9051C157,-109.9747 157,-97.0121 157,-85.1486"/>
<polygon fill="#000000" stroke="#000000" points="160.5001,-85.0846 157,-75.0847 153.5001,-85.0847 160.5001,-85.0846"/>
</g>
<!-- yapgrep_main_gui__CommonDialog____init__ -->
<g id="node14" class="node">
<title>yapgrep_main_gui__CommonDialog____init__</title>
<ellipse fill="#99feff" fill-opacity="0.698039" stroke="#000000" cx="2475" cy="-594.926" rx="132.6167" ry="25.4118"/>
<text text-anchor="middle" x="2475" y="-597.726" font-family="Times,serif" font-size="14.00" fill="#000000">__init__</text>
<text text-anchor="middle" x="2475" y="-583.726" font-family="Times,serif" font-size="14.00" fill="#000000">(gui/yapgrep_main_gui.py:32)</text>
</g>
<!-- yapgrep_main_gui__CommonDialog____init__&#45;&gt;yapgrep_common_gui__Ui_Common__setupUi -->
<g id="edge12" class="edge">
<title>yapgrep_main_gui__CommonDialog____init__&#45;&gt;yapgrep_common_gui__Ui_Common__setupUi</title>
<path fill="none" stroke="#000000" d="M2571.1789,-577.4009C2593.2652,-572.7645 2616.5559,-567.3822 2638,-561.4701 2667.4969,-553.338 2699.4508,-542.5862 2726.9227,-532.716"/>
<polygon fill="#000000" stroke="#000000" points="2728.2318,-535.9644 2736.4415,-529.2672 2725.8473,-529.383 2728.2318,-535.9644"/>
</g>
<!-- yapgrep_main_gui__CommonDialog____init__&#45;&gt;yapgrep_main_gui__CommonDialog____init__ -->
<g id="edge10" class="edge">
<title>yapgrep_main_gui__CommonDialog____init__&#45;&gt;yapgrep_main_gui__CommonDialog____init__</title>
<path fill="none" stroke="#000000" d="M2576.681,-611.3149C2604.4133,-610.4866 2625.5584,-605.0236 2625.5584,-594.926 2625.5584,-586.0905 2609.3691,-580.8035 2586.7434,-579.0649"/>
<polygon fill="#000000" stroke="#000000" points="2586.8507,-575.5658 2576.681,-578.537 2586.4839,-582.5562 2586.8507,-575.5658"/>
</g>
<!-- yapgrep_main_gui__CommonDialog__lineChange -->
<g id="node15" class="node">
<title>yapgrep_main_gui__CommonDialog__lineChange</title>
<ellipse fill="#99feff" fill-opacity="0.698039" stroke="#000000" cx="2475" cy="-506.0143" rx="132.6167" ry="25.4118"/>
<text text-anchor="middle" x="2475" y="-508.8143" font-family="Times,serif" font-size="14.00" fill="#000000">lineChange</text>
<text text-anchor="middle" x="2475" y="-494.8143" font-family="Times,serif" font-size="14.00" fill="#000000">(gui/yapgrep_main_gui.py:37)</text>
</g>
<!-- yapgrep_main_gui__CommonDialog____init__&#45;&gt;yapgrep_main_gui__CommonDialog__lineChange -->
<g id="edge13" class="edge">
<title>yapgrep_main_gui__CommonDialog____init__&#45;&gt;yapgrep_main_gui__CommonDialog__lineChange</title>
<path fill="none" stroke="#000000" d="M2475,-569.209C2475,-560.6385 2475,-550.9305 2475,-541.7407"/>
<polygon fill="#000000" stroke="#000000" points="2478.5001,-541.6734 2475,-531.6734 2471.5001,-541.6735 2478.5001,-541.6734"/>
</g>
<!-- yapgrep_main_gui__CommonDialog____init__&#45;&gt;yapgrep_main_gui__YapgrepGuiProgram____init__ -->
<g id="edge11" class="edge">
<title>yapgrep_main_gui__CommonDialog____init__&#45;&gt;yapgrep_main_gui__YapgrepGuiProgram____init__</title>
<path fill="none" stroke="#000000" d="M2389.4797,-575.3747C2375.3647,-573.0146 2360.8337,-570.9276 2347,-569.4701 2279.5721,-562.3662 2108.6947,-573.6689 2042,-561.4701 2008.9144,-555.4186 1973.4537,-543.606 1943.6181,-532.4326"/>
<polygon fill="#000000" stroke="#000000" points="1944.7302,-529.1112 1934.139,-528.8355 1942.2466,-535.6558 1944.7302,-529.1112"/>
</g>
<!-- yapgrep_main_gui__YapgrepGuiProgram____init__&#45;&gt;yapgrep_gui__Ui_MainWindow__setupUi -->
<g id="edge19" class="edge">
<title>yapgrep_main_gui__YapgrepGuiProgram____init__&#45;&gt;yapgrep_gui__Ui_MainWindow__setupUi</title>
<path fill="none" stroke="#000000" d="M1955.6429,-485.8455C1980.3426,-480.555 2007.6423,-475.5093 2033,-472.5584 2105.6425,-464.105 2290.5983,-480.376 2362,-464.5584 2387.9096,-458.8187 2415.0693,-447.7298 2437.5917,-436.9669"/>
<polygon fill="#000000" stroke="#000000" points="2439.1753,-440.0886 2446.6215,-432.5517 2436.1004,-433.8001 2439.1753,-440.0886"/>
</g>
<!-- yapgrep_main_gui__YapgrepGuiProgram____init__&#45;&gt;yapgrep_main_gui__CommonDialog -->
<g id="edge15" class="edge">
<title>yapgrep_main_gui__YapgrepGuiProgram____init__&#45;&gt;yapgrep_main_gui__CommonDialog</title>
<path fill="none" stroke="#000000" d="M1955.6482,-485.8914C1980.3481,-480.6024 2007.6466,-475.546 2033,-472.5584 2049.2271,-470.6463 2315.1822,-475.8418 2327,-464.5584 2347.5068,-444.9789 2361.9811,-229.9391 2342,-209.8234 2330.3424,-198.0872 1167.2567,-204.8825 1151,-201.8234 1121.5125,-196.2745 1090.2499,-185.0641 1064.3326,-174.1657"/>
<polygon fill="#000000" stroke="#000000" points="1065.6089,-170.9048 1055.0392,-170.1757 1062.8473,-177.337 1065.6089,-170.9048"/>
</g>
<!-- yapgrep_main_gui__YapgrepGuiProgram____init__&#45;&gt;yapgrep_main_gui__CommonDialog____init__ -->
<g id="edge17" class="edge">
<title>yapgrep_main_gui__YapgrepGuiProgram____init__&#45;&gt;yapgrep_main_gui__CommonDialog____init__</title>
<path fill="none" stroke="#000000" d="M1920.8056,-529.8393C1949.9214,-541.733 1988.3402,-554.9478 2024,-561.4701 2090.6947,-573.6689 2261.5721,-562.3662 2329,-569.4701 2342.5518,-570.8979 2356.7727,-572.9298 2370.8079,-575.2308"/>
<polygon fill="#000000" stroke="#000000" points="2370.5395,-578.7349 2380.9828,-576.9491 2371.7052,-571.8327 2370.5395,-578.7349"/>
</g>
<!-- yapgrep_main_gui__YapgrepGuiProgram____init__&#45;&gt;yapgrep_main_gui__YapgrepGuiProgram____init__ -->
<g id="edge22" class="edge">
<title>yapgrep_main_gui__YapgrepGuiProgram____init__&#45;&gt;yapgrep_main_gui__YapgrepGuiProgram____init__</title>
<path fill="none" stroke="#000000" d="M1975.681,-522.4033C2003.4133,-521.5749 2024.5584,-516.1119 2024.5584,-506.0143 2024.5584,-497.1788 2008.3691,-491.8918 1985.7434,-490.1532"/>
<polygon fill="#000000" stroke="#000000" points="1985.8507,-486.6541 1975.681,-489.6253 1985.4839,-493.6445 1985.8507,-486.6541"/>
</g>
<!-- yapgrep_main_gui__YapgrepGuiProgram__about -->
<g id="node17" class="node">
<title>yapgrep_main_gui__YapgrepGuiProgram__about</title>
<ellipse fill="#99feff" fill-opacity="0.698039" stroke="#000000" cx="1594" cy="-409.1026" rx="137.2913" ry="25.4118"/>
<text text-anchor="middle" x="1594" y="-411.9026" font-family="Times,serif" font-size="14.00" fill="#000000">about</text>
<text text-anchor="middle" x="1594" y="-397.9026" font-family="Times,serif" font-size="14.00" fill="#000000">(gui/yapgrep_main_gui.py:112)</text>
</g>
<!-- yapgrep_main_gui__YapgrepGuiProgram____init__&#45;&gt;yapgrep_main_gui__YapgrepGuiProgram__about -->
<g id="edge21" class="edge">
<title>yapgrep_main_gui__YapgrepGuiProgram____init__&#45;&gt;yapgrep_main_gui__YapgrepGuiProgram__about</title>
<path fill="none" stroke="#000000" d="M1801.7523,-484.5757C1781.6737,-478.3703 1759.9173,-471.4144 1740,-464.5584 1714.3112,-455.7158 1686.3651,-445.2996 1661.8641,-435.8963"/>
<polygon fill="#000000" stroke="#000000" points="1662.8922,-432.5416 1652.3025,-432.2112 1660.3748,-439.0733 1662.8922,-432.5416"/>
</g>
<!-- yapgrep_main_gui__YapgrepGuiProgram__common_settings -->
<g id="node20" class="node">
<title>yapgrep_main_gui__YapgrepGuiProgram__common_settings</title>
<ellipse fill="#99feff" fill-opacity="0.698039" stroke="#000000" cx="1887" cy="-409.1026" rx="137.5162" ry="25.4118"/>
<text text-anchor="middle" x="1887" y="-411.9026" font-family="Times,serif" font-size="14.00" fill="#000000">common_settings</text>
<text text-anchor="middle" x="1887" y="-397.9026" font-family="Times,serif" font-size="14.00" fill="#000000">(gui/yapgrep_main_gui.py:102)</text>
</g>
<!-- yapgrep_main_gui__YapgrepGuiProgram____init__&#45;&gt;yapgrep_main_gui__YapgrepGuiProgram__common_settings -->
<g id="edge20" class="edge">
<title>yapgrep_main_gui__YapgrepGuiProgram____init__&#45;&gt;yapgrep_main_gui__YapgrepGuiProgram__common_settings</title>
<path fill="none" stroke="#000000" d="M1877.4156,-480.5519C1878.8818,-469.6214 1880.6207,-456.6589 1882.2121,-444.7953"/>
<polygon fill="#000000" stroke="#000000" points="1885.7014,-445.108 1883.5621,-434.7314 1878.7635,-444.1773 1885.7014,-445.108"/>
</g>
<!-- yapgrep_main_gui__YapgrepGuiProgram__exitCall -->
<g id="node21" class="node">
<title>yapgrep_main_gui__YapgrepGuiProgram__exitCall</title>
<ellipse fill="#99feff" fill-opacity="0.698039" stroke="#000000" cx="2180" cy="-409.1026" rx="137.5162" ry="25.4118"/>
<text text-anchor="middle" x="2180" y="-411.9026" font-family="Times,serif" font-size="14.00" fill="#000000">exitCall</text>
<text text-anchor="middle" x="2180" y="-397.9026" font-family="Times,serif" font-size="14.00" fill="#000000">(gui/yapgrep_main_gui.py:301)</text>
</g>
<!-- yapgrep_main_gui__YapgrepGuiProgram____init__&#45;&gt;yapgrep_main_gui__YapgrepGuiProgram__exitCall -->
<g id="edge16" class="edge">
<title>yapgrep_main_gui__YapgrepGuiProgram____init__&#45;&gt;yapgrep_main_gui__YapgrepGuiProgram__exitCall</title>
<path fill="none" stroke="#000000" d="M1957.5373,-486.211C1982.3109,-479.844 2009.3918,-472.394 2034,-464.5584 2060.2296,-456.2066 2088.6169,-445.7573 2113.3254,-436.1878"/>
<polygon fill="#000000" stroke="#000000" points="2114.9128,-439.3255 2122.9569,-432.4303 2112.3687,-432.8041 2114.9128,-439.3255"/>
</g>
<!-- yapgrep_main_gui__YapgrepGuiProgram____init__&#45;&gt;yapgrep_main_gui__YapgrepGuiProgram__search -->
<g id="edge18" class="edge">
<title>yapgrep_main_gui__YapgrepGuiProgram____init__&#45;&gt;yapgrep_main_gui__YapgrepGuiProgram__search</title>
<path fill="none" stroke="#000000" d="M1799.8893,-484.8846C1779.6581,-479.95 1757.6257,-475.3304 1737,-472.5584 1673.3257,-464.0009 1511.039,-476.9574 1448,-464.5584 1418.4428,-458.7449 1387.0303,-447.6268 1360.8638,-436.8627"/>
<polygon fill="#000000" stroke="#000000" points="1362.0494,-433.5646 1351.474,-432.9235 1359.3414,-440.0196 1362.0494,-433.5646"/>
</g>
<!-- yapgrep_main_gui__YapgrepGuiProgram__cancel -->
<g id="node18" class="node">
<title>yapgrep_main_gui__YapgrepGuiProgram__cancel</title>
<ellipse fill="#99feff" fill-opacity="0.698039" stroke="#000000" cx="2180" cy="-506.0143" rx="137.5162" ry="25.4118"/>
<text text-anchor="middle" x="2180" y="-508.8143" font-family="Times,serif" font-size="14.00" fill="#000000">cancel</text>
<text text-anchor="middle" x="2180" y="-494.8143" font-family="Times,serif" font-size="14.00" fill="#000000">(gui/yapgrep_main_gui.py:122)</text>
</g>
<!-- yapgrep_main_gui__YapgrepGuiProgram__cancel&#45;&gt;yapgrep_main_gui__YapCancel -->
<g id="edge23" class="edge">
<title>yapgrep_main_gui__YapgrepGuiProgram__cancel&#45;&gt;yapgrep_main_gui__YapCancel</title>
<path fill="none" stroke="#000000" d="M2277.3471,-488.0113C2300.1646,-481.7551 2319.9181,-473.9137 2327,-464.5584 2350.8505,-433.0515 2350.7058,-407.2628 2327,-375.6468 2169.2373,-165.2407 2019.1657,-248.2109 1759,-209.8234 1660.6168,-195.3069 961.6242,-220.7837 864,-201.8234 835.379,-196.2647 805.1099,-185.1236 779.9852,-174.2762"/>
<polygon fill="#000000" stroke="#000000" points="781.1839,-170.9796 770.6219,-170.1455 778.3584,-177.3841 781.1839,-170.9796"/>
</g>
<!-- yapgrep_main_gui__YapgrepGuiProgram__checkExtInTypeList -->
<g id="node19" class="node">
<title>yapgrep_main_gui__YapgrepGuiProgram__checkExtInTypeList</title>
<ellipse fill="#99feff" fill-opacity="0.698039" stroke="#000000" cx="1301" cy="-235.2792" rx="137.5162" ry="25.4118"/>
<text text-anchor="middle" x="1301" y="-238.0792" font-family="Times,serif" font-size="14.00" fill="#000000">checkExtInTypeList</text>
<text text-anchor="middle" x="1301" y="-224.0792" font-family="Times,serif" font-size="14.00" fill="#000000">(gui/yapgrep_main_gui.py:190)</text>
</g>
<!-- yapgrep_main_gui__YapgrepGuiProgram__grepFile -->
<g id="node22" class="node">
<title>yapgrep_main_gui__YapgrepGuiProgram__grepFile</title>
<ellipse fill="#99feff" fill-opacity="0.698039" stroke="#000000" cx="1594" cy="-235.2792" rx="137.5162" ry="25.4118"/>
<text text-anchor="middle" x="1594" y="-238.0792" font-family="Times,serif" font-size="14.00" fill="#000000">grepFile</text>
<text text-anchor="middle" x="1594" y="-224.0792" font-family="Times,serif" font-size="14.00" fill="#000000">(gui/yapgrep_main_gui.py:238)</text>
</g>
<!-- yapgrep_main_gui__YapgrepGuiProgram__grepFile&#45;&gt;yapgrep_main_gui__YapCancel -->
<g id="edge32" class="edge">
<title>yapgrep_main_gui__YapgrepGuiProgram__grepFile&#45;&gt;yapgrep_main_gui__YapCancel</title>
<path fill="none" stroke="#000000" d="M1500.0497,-216.6374C1482.8019,-213.8602 1464.9079,-211.4031 1448,-209.8234 1383.3864,-203.7866 927.675,-214.3475 864,-201.8234 835.5067,-196.2191 805.3671,-185.1355 780.2998,-174.3406"/>
<polygon fill="#000000" stroke="#000000" points="781.5177,-171.0527 770.9549,-170.2295 778.6989,-177.4601 781.5177,-171.0527"/>
</g>
<!-- yapgrep_main_gui__YapgrepGuiProgram__grepFile&#45;&gt;yapgrep_main_gui__YapgrepGuiProgram__grepFile -->
<g id="edge30" class="edge">
<title>yapgrep_main_gui__YapgrepGuiProgram__grepFile&#45;&gt;yapgrep_main_gui__YapgrepGuiProgram__grepFile</title>
<path fill="none" stroke="#000000" d="M1701.2043,-251.2249C1728.7689,-250.2106 1749.5081,-244.8954 1749.5081,-235.2792 1749.5081,-226.865 1733.6296,-221.7438 1711.1939,-219.9155"/>
<polygon fill="#000000" stroke="#000000" points="1711.391,-216.4212 1701.2043,-219.3336 1710.9838,-223.4093 1711.391,-216.4212"/>
</g>
<!-- yapgrep_main_gui__YapgrepGuiProgram__outputLine -->
<g id="node23" class="node">
<title>yapgrep_main_gui__YapgrepGuiProgram__outputLine</title>
<ellipse fill="#99feff" fill-opacity="0.698039" stroke="#000000" cx="1593" cy="-49.4558" rx="137.5162" ry="25.4118"/>
<text text-anchor="middle" x="1593" y="-52.2558" font-family="Times,serif" font-size="14.00" fill="#000000">outputLine</text>
<text text-anchor="middle" x="1593" y="-38.2558" font-family="Times,serif" font-size="14.00" fill="#000000">(gui/yapgrep_main_gui.py:305)</text>
</g>
<!-- yapgrep_main_gui__YapgrepGuiProgram__grepFile&#45;&gt;yapgrep_main_gui__YapgrepGuiProgram__outputLine -->
<g id="edge31" class="edge">
<title>yapgrep_main_gui__YapgrepGuiProgram__grepFile&#45;&gt;yapgrep_main_gui__YapgrepGuiProgram__outputLine</title>
<path fill="none" stroke="#000000" d="M1534.0473,-212.3567C1530.5609,-209.2664 1527.4738,-205.772 1525,-201.8234 1504.0207,-168.3359 1509.2493,-149.1533 1525,-112.9117 1530.2827,-100.7565 1539.168,-89.8727 1548.8028,-80.6945"/>
<polygon fill="#000000" stroke="#000000" points="1551.1496,-83.2912 1556.2695,-74.0155 1546.4827,-78.0739 1551.1496,-83.2912"/>
</g>
<!-- yapgrep_main_gui__YapgrepGuiProgram__printRuler -->
<g id="node24" class="node">
<title>yapgrep_main_gui__YapgrepGuiProgram__printRuler</title>
<ellipse fill="#99feff" fill-opacity="0.698039" stroke="#000000" cx="1672" cy="-146.3675" rx="137.5162" ry="25.4118"/>
<text text-anchor="middle" x="1672" y="-149.1675" font-family="Times,serif" font-size="14.00" fill="#000000">printRuler</text>
<text text-anchor="middle" x="1672" y="-135.1675" font-family="Times,serif" font-size="14.00" fill="#000000">(gui/yapgrep_main_gui.py:125)</text>
</g>
<!-- yapgrep_main_gui__YapgrepGuiProgram__grepFile&#45;&gt;yapgrep_main_gui__YapgrepGuiProgram__printRuler -->
<g id="edge29" class="edge">
<title>yapgrep_main_gui__YapgrepGuiProgram__grepFile&#45;&gt;yapgrep_main_gui__YapgrepGuiProgram__printRuler</title>
<path fill="none" stroke="#000000" d="M1616.143,-210.0385C1624.5415,-200.4652 1634.2314,-189.4197 1643.1581,-179.2442"/>
<polygon fill="#000000" stroke="#000000" points="1645.8379,-181.4968 1649.8016,-171.6713 1640.5758,-176.8805 1645.8379,-181.4968"/>
</g>
<!-- yapgrep_main_gui__YapgrepGuiProgram__printRuler&#45;&gt;yapgrep_main_gui__YapgrepGuiProgram__outputLine -->
<g id="edge24" class="edge">
<title>yapgrep_main_gui__YapgrepGuiProgram__printRuler&#45;&gt;yapgrep_main_gui__YapgrepGuiProgram__outputLine</title>
<path fill="none" stroke="#000000" d="M1651.4499,-121.1581C1641.9242,-109.4727 1630.4717,-95.4235 1620.2381,-82.8696"/>
<polygon fill="#000000" stroke="#000000" points="1622.7529,-80.4153 1613.7216,-74.8757 1617.3272,-84.8382 1622.7529,-80.4153"/>
</g>
<!-- yapgrep_main_gui__YapgrepGuiProgram__search&#45;&gt;yapgrep_main_gui__YapCancel -->
<g id="edge25" class="edge">
<title>yapgrep_main_gui__YapgrepGuiProgram__search&#45;&gt;yapgrep_main_gui__YapCancel</title>
<path fill="none" stroke="#000000" d="M1240.3439,-386.1526C1213.4644,-375.3711 1181.7193,-361.7901 1154,-347.6468 1049.2043,-294.1762 1039.0705,-248.6125 928,-209.8234 900.937,-200.3722 891.7779,-208.9026 864,-201.8234 836.8843,-194.913 807.9568,-184.1698 783.4055,-173.9725"/>
<polygon fill="#000000" stroke="#000000" points="784.4483,-170.6138 773.8742,-169.9508 781.7269,-177.0631 784.4483,-170.6138"/>
</g>
<!-- yapgrep_main_gui__YapgrepGuiProgram__walkDirs -->
<g id="node26" class="node">
<title>yapgrep_main_gui__YapgrepGuiProgram__walkDirs</title>
<ellipse fill="#99feff" fill-opacity="0.698039" stroke="#000000" cx="1301" cy="-322.1909" rx="137.5162" ry="25.4118"/>
<text text-anchor="middle" x="1301" y="-324.9909" font-family="Times,serif" font-size="14.00" fill="#000000">walkDirs</text>
<text text-anchor="middle" x="1301" y="-310.9909" font-family="Times,serif" font-size="14.00" fill="#000000">(gui/yapgrep_main_gui.py:199)</text>
</g>
<!-- yapgrep_main_gui__YapgrepGuiProgram__search&#45;&gt;yapgrep_main_gui__YapgrepGuiProgram__walkDirs -->
<g id="edge26" class="edge">
<title>yapgrep_main_gui__YapgrepGuiProgram__search&#45;&gt;yapgrep_main_gui__YapgrepGuiProgram__walkDirs</title>
<path fill="none" stroke="#000000" d="M1301,-383.4963C1301,-375.5224 1301,-366.5779 1301,-358.0381"/>
<polygon fill="#000000" stroke="#000000" points="1304.5001,-357.9145 1301,-347.9145 1297.5001,-357.9146 1304.5001,-357.9145"/>
</g>
<!-- yapgrep_main_gui__YapgrepGuiProgram__walkDirs&#45;&gt;yapgrep_main_gui__YapgrepGuiProgram__checkExtInTypeList -->
<g id="edge28" class="edge">
<title>yapgrep_main_gui__YapgrepGuiProgram__walkDirs&#45;&gt;yapgrep_main_gui__YapgrepGuiProgram__checkExtInTypeList</title>
<path fill="none" stroke="#000000" d="M1301,-296.5846C1301,-288.6107 1301,-279.6662 1301,-271.1264"/>
<polygon fill="#000000" stroke="#000000" points="1304.5001,-271.0028 1301,-261.0028 1297.5001,-271.0029 1304.5001,-271.0028"/>
</g>
<!-- yapgrep_main_gui__YapgrepGuiProgram__walkDirs&#45;&gt;yapgrep_main_gui__YapgrepGuiProgram__grepFile -->
<g id="edge27" class="edge">
<title>yapgrep_main_gui__YapgrepGuiProgram__walkDirs&#45;&gt;yapgrep_main_gui__YapgrepGuiProgram__grepFile</title>
<path fill="none" stroke="#000000" d="M1373.8034,-300.5955C1415.5587,-288.2097 1468.1141,-272.6204 1511.408,-259.7782"/>
<polygon fill="#000000" stroke="#000000" points="1512.4716,-263.1136 1521.0634,-256.9142 1510.4809,-256.4026 1512.4716,-263.1136"/>
</g>
</g>
</svg>
